# xmcd CD database file
#
# Track frame offsets:
#	150
#	16399
#	31920
#	50483
#	69609
#	84234
#	102234
#	121360
#	139940
#	149784
#	165535
#	182832
#	203082
#	220098
#	237817
#	255226
#	272664
#	288836
#	304587
#	321462
#
# Disc length: 4514 seconds
#
# Revision: 0
# Processed by: cddbd v1.5.2PL0 Copyright (c) Steve Scherf et al.
# Submitted via: CDex 1.51
#
DISCID=2111a014
DTITLE=Electro House Sessions - Electro House Sessions - ministry of sound
DYEAR=2007
DGENRE=CLUB ELECTRO
TTITLE0=Mason and Princess Superstar - Perfect (Exceeder) (vocal club mix)
TTITLE1=Eric Prydz and Pink Floyd - Proper Education (club mix)
TTITLE2=Roger Sanchez - Lost (D. Ramirez lost in rave remix)
TTITLE3=Camille Jones - Creeps (Fedde Le Grand remix)
TTITLE4=Erick E - Beat Is Rockin' (Gregor Salto remix)
TTITLE5=Sharam - PATT (Party All The Time) (club mix)
TTITLE6=DADA and Sandy Rivera/Trix - Lollipop 
TTITLE7=BootyLuv - Boogie Tonight (Seamus Haji big love mix) 
TTITLE8=Fedde Le Grand - Put Your Hands Up For Detroit (club mix)
TTITLE9=Outwork and Mr Gee  - Electro (The Cube Guys delano remix)
TTITLE10=Alex Gaudino - Destination Calabria (Static Shokx remix)
TTITLE11=Mylo and Freeform Five - Muscle Car (Sander Kleinenberg pace car remix)
TTITLE12=Egg and David Guetta -p Love Don't Let Me Go (Walking Away)
TTITLE13=Spektrum - Kinda New (Dirty South remix)
TTITLE14=Danny Freakazoid - Teken  
TTITLE15=Freaks - Creeps (You're Giving Me) (Vandalism mix)  
TTITLE16=Freakx Brothers - Tension  
TTITLE17=Hook and Kid Kinobe - Bump (Tonite Only remix)  
TTITLE18=Johnny Crockett - E For Electro (Hi_Tack flipperkast mix)  
TTITLE19=Nicky Vanshee and Dangerous Dan - Around The World Again 
EXTD=YEAR: 2007
EXTT0=
EXTT1=
EXTT2=
EXTT3=
EXTT4=
EXTT5=
EXTT6=
EXTT7=
EXTT8=
EXTT9=
EXTT10=
EXTT11=
EXTT12=
EXTT13=
EXTT14=
EXTT15=
EXTT16=
EXTT17=
EXTT18=
EXTT19=
PLAYORDER=
